<svg width="34" height="16" viewBox="0 0 34 16" fill="none" xmlns="http://www.w3.org/2000/svg">
<path opacity="0.8" d="M0.292893 7.29289C-0.097631 7.68342 -0.097631 8.31658 0.292893 8.70711L6.65685 15.0711C7.04738 15.4616 7.68054 15.4616 8.07107 15.0711C8.46159 14.6805 8.46159 14.0474 8.07107 13.6569L2.41421 8L8.07107 2.34315C8.46159 1.95262 8.46159 1.31946 8.07107 0.928932C7.68054 0.538408 7.04738 0.538408 6.65685 0.928932L0.292893 7.29289ZM2 8V7H1V8L1 9H2L2 8Z" fill="black"/>
<path d="M33.6967 8.70703C34.093 8.31655 34.1023 7.68345 33.7175 7.29297L27.4471 0.929697C27.0623 0.539215 26.4292 0.539215 26.0329 0.929697C25.6366 1.32018 25.6273 1.95328 26.0121 2.34376L31.5858 8L25.8458 13.6562C25.4495 14.0467 25.4402 14.6798 25.825 15.0703C26.2097 15.4608 26.8429 15.4608 27.2392 15.0703L33.6967 8.70703ZM32 8L31.9853 8.99989L32.9853 8.99989L33 8L33.0147 7.00011L32.0147 7.00011L32 8Z" fill="black"/>
</svg>
