<svg width="35" height="35" viewBox="0 0 35 35" fill="none" xmlns="http://www.w3.org/2000/svg">
<path d="M2 2H2.4692C3.29759 2 3.71251 2 4.05038 2.14721C4.34827 2.277 4.60296 2.48597 4.78663 2.75095C4.9946 3.051 5.06969 3.45166 5.21959 4.25141L8.99396 24.389L27.2161 24.3889C28.0085 24.3889 28.4059 24.3889 28.7342 24.251C29.0241 24.1292 29.2742 23.9318 29.4599 23.681C29.6699 23.3973 29.7589 23.0175 29.9366 22.2587L29.938 22.2533L32.6817 10.5422L32.6823 10.5397C32.952 9.3886 33.0872 8.81165 32.9387 8.3591C32.8085 7.96203 32.5344 7.62537 32.1709 7.41109C31.7563 7.16667 31.1571 7.16667 29.9558 7.16667H6.37118M28.2271 33C27.2614 33 26.4786 32.2289 26.4786 31.2778C26.4786 30.3266 27.2614 29.5556 28.2271 29.5556C29.1927 29.5556 29.9756 30.3266 29.9756 31.2778C29.9756 32.2289 29.1927 33 28.2271 33ZM10.7424 33C9.77671 33 8.99389 32.2289 8.99389 31.2778C8.99389 30.3266 9.77671 29.5556 10.7424 29.5556C11.708 29.5556 12.4908 30.3266 12.4908 31.2778C12.4908 32.2289 11.708 33 10.7424 33Z" stroke="#212121" stroke-width="4" stroke-linecap="round" stroke-linejoin="round"/>
</svg>
