<svg width="25" height="25" viewBox="0 0 25 25" fill="none" xmlns="http://www.w3.org/2000/svg">
<path d="M12.5068 25L10.6877 23.2005C4.25026 16.8403 0.000322531 12.6415 0.000322531 7.49331C-0.00848818 6.50665 0.163297 5.52798 0.505629 4.61455C0.847961 3.70113 1.35397 2.87129 1.99404 2.17358C2.63412 1.47588 3.39541 0.924311 4.23338 0.551156C5.07136 0.178 5.96919 -0.00925245 6.87435 0.000351571C7.94523 0.00817894 9.00213 0.266224 9.97376 0.757085C10.9454 1.24795 11.8092 1.96021 12.5068 2.84584C13.2027 1.96172 14.0642 1.25031 15.0334 0.759489C16.0026 0.268668 17.057 0.00981617 18.1257 0.000351571C19.0308 -0.00925245 19.9286 0.178 20.7666 0.551156C21.6046 0.924311 22.3659 1.47588 23.006 2.17358C23.646 2.87129 24.152 3.70113 24.4944 4.61455C24.8367 5.52798 25.0085 6.50665 24.9997 7.49331C24.9997 12.6415 20.7497 16.8403 14.3123 23.2154L12.5068 25Z" fill="#D9D9D9" fill-opacity="0.7"/>
</svg>
